<?xml version="1.0"?>
<svg xmlns="http://www.w3.org/2000/svg" id="Layer_1" data-name="Layer 1" viewBox="0 0 337.7 384">
  <defs>
    <style>.cls-1{fill:#84c441;}</style>
  </defs>
  <title>014-hacking-1</title>
  <path class="cls-1" d="M799.8,611.3c-15.6,0-22.8,19.6-10.9,29.8-2,8.8,3.9,15.3,10.9,15.3s13-6.5,10.9-15.3c11.9-10.2,4.7-29.8-10.9-29.8Z" transform="translate(-631 -408)"/>
  <path class="cls-1" d="M946,703.6V645.2a11.27,11.27,0,0,0-11.2-11.3H878.6V611.3h56.2A11.27,11.27,0,0,0,946,600V473.8a33.75,33.75,0,1,0-22.5,0V588.7h-45V577.4a11.27,11.27,0,0,0-11.2-11.3H766V532.2a33.84,33.84,0,0,1,33.8-33.9c17.7,0,33.8,14,33.8,34.6a11.27,11.27,0,0,0,11.2,11.3c5.7,0,11.2-4.3,11.2-12,0-31.1-25.2-56.5-56.2-56.5a56.38,56.38,0,0,0-56.2,56.5v33.9H732.4a11.27,11.27,0,0,0-11.2,11.3v33.9h-45V496.4a33.85,33.85,0,1,0-22.7,0V622.6a11.27,11.27,0,0,0,11.2,11.3H721v22.6H664.8a11.27,11.27,0,0,0-11.2,11.3v58.4a33.8,33.8,0,1,0,22.6,0V679.1h45v11.3a11.27,11.27,0,0,0,11.2,11.3h135a11.27,11.27,0,0,0,11.2-11.3V656.5h45v47.1a33.86,33.86,0,1,0,45.1,31.9A34.39,34.39,0,0,0,946,703.6Zm-11.2-273a11.3,11.3,0,1,1-11.2,11.3,11.14,11.14,0,0,1,11.2-11.3Zm-270,22.6a11.3,11.3,0,1,1-11.2,11.3,11.08,11.08,0,0,1,11.2-11.3Zm0,316.2A11.3,11.3,0,1,1,676,758.1a11.27,11.27,0,0,1-11.2,11.3ZM856,679.1H743.5V588.7H856Zm78.8,67.7A11.3,11.3,0,1,1,946,735.5a11.27,11.27,0,0,1-11.2,11.3Z" transform="translate(-631 -408)"/>
</svg>
