<?xml version="1.0"?>
<svg xmlns="http://www.w3.org/2000/svg" id="Layer_1" data-name="Layer 1" viewBox="0 0 384 303">
  <defs>
    <style>.cls-1{fill:#84c442;}</style>
  </defs>
  <title>001-spy</title>
  <path class="cls-1" d="M1140.75,603.5H1122V407.75A18.77,18.77,0,0,0,1103.25,389H816.75A18.77,18.77,0,0,0,798,407.75V603.5H779.25A11.25,11.25,0,0,0,768,614.75v43.5A33.79,33.79,0,0,0,801.75,692h316.5A33.79,33.79,0,0,0,1152,658.25v-43.5a11.25,11.25,0,0,0-11.25-11.25ZM820.5,411.5h279v192h-87.75c-9.84,0-11.14,9-15.43,21H923.68c-4.16-11.64-5.57-21-15.43-21H820.5Zm309,246.75a11.27,11.27,0,0,1-11.25,11.25H801.75a11.27,11.27,0,0,1-11.25-11.25V626H900.32l4.84,13.54A11.24,11.24,0,0,0,915.75,647h88.5a11.24,11.24,0,0,0,10.59-7.46l4.84-13.54H1129.5Zm0,0" transform="translate(-768 -389)"/>
  <path class="cls-1" d="M1034.76,549.34a121.58,121.58,0,0,0,22.87-32,11.22,11.22,0,0,0,0-9.25,121.54,121.54,0,0,0-22.87-32c-42.28-42.83-107.26-42.82-149.52,0a121.54,121.54,0,0,0-22.87,32,11.22,11.22,0,0,0,0,9.25,121.58,121.58,0,0,0,22.87,32c42.28,42.83,107.26,42.82,149.52,0Zm-149.41-36.6c35.39-61.07,113.22-62.08,149.3,0-35.41,61.1-113.22,62.1-149.3,0Zm0,0" transform="translate(-768 -389)"/>
  <path class="cls-1" d="M982.5,512.75a22.5,22.5,0,1,1-22.5-22.5,22.5,22.5,0,0,1,22.5,22.5Zm0,0" transform="translate(-768 -389)"/>
</svg>
